<!-- icon666.com - MILLIONS vector ICONS FREE --><svg id="Layer_4" viewBox="0 0 24 24" xmlns="http://www.w3.org/2000/svg" data-name="Layer 4"><g fill="#ffc107"><path d="m10.91 12.667h1.99l.19-1.334h-1.99z"></path><path d="m12.0928 5.5005c-.0313 0-.062 0-.0933 0a6.5 6.5 0 0 0 -6.4995 6.4995 7.8988 7.8988 0 0 0 .2935 1.9385 7.0157 7.0157 0 0 0 1.5732 2.7215.5006.5006 0 0 1 -.0132.6938l-1.1465 1.1462h5.793a6.5 6.5 0 0 0 6.5-6.5928 6.6244 6.6244 0 0 0 -6.4072-6.4067zm2.9072 7.166a.5.5 0 0 1 0 1h-1.2328l-.2721 1.9043a.5.5 0 0 1 -.4946.4292.5077.5077 0 0 1 -.0713-.0049.5.5 0 0 1 -.4243-.5659l.2518-1.7627h-1.9895l-.2721 1.9043a.5.5 0 0 1 -.4946.4292.5077.5077 0 0 1 -.0713-.0049.5.5 0 0 1 -.4243-.5659l.2518-1.7627h-.7567a.5.5 0 0 1 0-1h.9l.1905-1.333h-1.0905a.5.5 0 0 1 0-1h1.2328l.2721-1.9043a.5.5 0 1 1 .99.1416l-.2518 1.7627h1.9895l.2721-1.9043a.5.5 0 1 1 .99.1416l-.2518 1.7627h.7571a.5.5 0 0 1 0 1h-.8995l-.1905 1.333z"></path><path d="m20.07.5361a61.0012 61.0012 0 0 0 -16.1018-.005 3.9793 3.9793 0 0 0 -3.4321 3.3989 61.0009 61.0009 0 0 0 -.0053 16.1 3.9949 3.9949 0 0 0 3.439 3.44 60.9878 60.9878 0 0 0 7.9714.53 60.9971 60.9971 0 0 0 8.09-.5309 3.98 3.98 0 0 0 3.433-3.3993 61.0038 61.0038 0 0 0 .5358-8.0698 60.9876 60.9876 0 0 0 -.5311-8.0318 3.9792 3.9792 0 0 0 -3.3989-3.4321zm-2.73 16.73a7.4476 7.4476 0 0 1 -5.34 2.2339h-5.793a1 1 0 0 1 -.707-1.707l.8159-.8159a8.0072 8.0072 0 0 1 -1.48-2.7505 8.8736 8.8736 0 0 1 -.3359-2.2266 7.5 7.5 0 0 1 7.6064-7.4995 7.55 7.55 0 0 1 7.3936 7.3931 7.45 7.45 0 0 1 -2.16 5.3725z"></path></g></svg>