<!-- icon666.com - MILLIONS vector ICONS FREE --><svg enable-background="new 0 0 64 64" viewBox="0 0 64 64" xmlns="http://www.w3.org/2000/svg" xmlns:xlink="http://www.w3.org/1999/xlink"><linearGradient id="SVGID_1_" gradientUnits="userSpaceOnUse" x1="5" x2="59" y1="31.5" y2="31.5"><stop offset="0" stop-color="#f2551c"></stop><stop offset="1" stop-color="#ffd432"></stop></linearGradient><g id="Layer_47"><path d="m58.3 25.5-25-22c-.8-.7-1.9-.7-2.6 0l-25 22c-.5.4-.7.9-.7 1.5v8c0 .8.5 1.5 1.2 1.8s1.6.2 2.1-.3l2.7-2.4v19.9c0 3.3 2.7 6 6 6h9 12 9c3.3 0 6-2.7 6-6v-19.9l2.7 2.4c.4.3.8.5 1.3.5.3 0 .6-.1.8-.2.7-.3 1.2-1 1.2-1.8v-8c0-.6-.2-1.1-.7-1.5zm-30.3 30.5v-10c0-2.2 1.8-4 4-4s4 1.8 4 4v10zm21-2c0 1.1-.9 2-2 2h-7v-10c0-4.4-3.6-8-8-8s-8 3.6-8 8v10h-7c-1.1 0-2-.9-2-2v-23.4l17-15 17 15zm6-23.4-21.7-19.1c-.4-.3-.8-.5-1.3-.5s-.9.2-1.3.5l-21.7 19.1v-2.7l23-20.2 23 20.2zm-30-2.6c0 3.9 3.1 7 7 7s7-3.1 7-7-3.1-7-7-7-7 3.1-7 7zm10 0c0 1.7-1.3 3-3 3s-3-1.3-3-3 1.3-3 3-3 3 1.3 3 3z" fill="url(#SVGID_1_)"></path></g></svg>